<svg xmlns="http://www.w3.org/2000/svg" viewBox="0 0 720 860"><rect width="720" height="860" fill="#f7f5ed"/><style>text{font-family:Arial,sans-serif;fill:#243b43} .title{font-size:24px;font-weight:bold}.label{font-size:18px}</style><text x="25" y="40" class="title">Fixture 06: place beside Unit 101</text><text x="25" y="70" class="label">Map diagram • default camera direction • not a screenshot</text><polygon points="440,138 920,418 584,614 104,334" fill="#c7d2a9" stroke="#627576" stroke-width="1"/><polygon points="512,208 524,215 512,222 500,215" fill="#68777b" stroke="#68777b" stroke-width="0"/><polygon points="524,215 536,222 524,229 512,222" fill="#68777b" stroke="#68777b" stroke-width="0"/><polygon points="536,222 548,229 536,236 524,229" fill="#68777b" stroke="#68777b" stroke-width="0"/><polygon points="500,215 512,222 500,229 488,222" fill="#68777b" stroke="#68777b" stroke-width="0"/><polygon points="512,222 524,229 512,236 500,229" fill="#68777b" stroke="#68777b" stroke-width="0"/><polygon points="524,229 536,236 524,243 512,236" fill="#68777b" stroke="#68777b" stroke-width="0"/><polygon points="488,222 500,229 488,236 476,229" fill="#68777b" stroke="#68777b" stroke-width="0"/><polygon points="500,229 512,236 500,243 488,236" fill="#68777b" stroke="#68777b" stroke-width="0"/><polygon points="512,236 524,243 512,250 500,243" fill="#68777b" stroke="#68777b" stroke-width="0"/><polygon points="476,229 488,236 476,243 464,236" fill="#68777b" stroke="#68777b" stroke-width="0"/><polygon points="488,236 500,243 488,250 476,243" fill="#68777b" stroke="#68777b" stroke-width="0"/><polygon points="500,243 512,250 500,257 488,250" fill="#68777b" stroke="#68777b" stroke-width="0"/><polygon points="464,236 476,243 464,250 452,243" fill="#68777b" stroke="#68777b" stroke-width="0"/><polygon points="476,243 488,250 476,257 464,250" fill="#68777b" stroke="#68777b" stroke-width="0"/><polygon points="488,250 500,257 488,264 476,257" fill="#68777b" stroke="#68777b" stroke-width="0"/><polygon points="452,243 464,250 452,257 440,250" fill="#68777b" stroke="#68777b" stroke-width="0"/><polygon points="464,250 476,257 464,264 452,257" fill="#68777b" stroke="#68777b" stroke-width="0"/><polygon points="476,257 488,264 476,271 464,264" fill="#68777b" stroke="#68777b" stroke-width="0"/><polygon points="440,250 452,257 440,264 428,257" fill="#68777b" stroke="#68777b" stroke-width="0"/><polygon points="452,257 464,264 452,271 440,264" fill="#68777b" stroke="#68777b" stroke-width="0"/><polygon points="464,264 476,271 464,278 452,271" fill="#68777b" stroke="#68777b" stroke-width="0"/><polygon points="428,257 440,264 428,271 416,264" fill="#68777b" stroke="#68777b" stroke-width="0"/><polygon points="440,264 452,271 440,278 428,271" fill="#68777b" stroke="#68777b" stroke-width="0"/><polygon points="452,271 464,278 452,285 440,278" fill="#68777b" stroke="#68777b" stroke-width="0"/><polygon points="416,264 428,271 416,278 404,271" fill="#68777b" stroke="#68777b" stroke-width="0"/><polygon points="428,271 440,278 428,285 416,278" fill="#68777b" stroke="#68777b" stroke-width="0"/><polygon points="440,278 452,285 440,292 428,285" fill="#68777b" stroke="#68777b" stroke-width="0"/><polygon points="404,271 416,278 404,285 392,278" fill="#68777b" stroke="#68777b" stroke-width="0"/><polygon points="416,278 428,285 416,292 404,285" fill="#68777b" stroke="#68777b" stroke-width="0"/><polygon points="428,285 440,292 428,299 416,292" fill="#68777b" stroke="#68777b" stroke-width="0"/><polygon points="392,278 404,285 392,292 380,285" fill="#68777b" stroke="#68777b" stroke-width="0"/><polygon points="404,285 416,292 404,299 392,292" fill="#68777b" stroke="#68777b" stroke-width="0"/><polygon points="416,292 428,299 416,306 404,299" fill="#68777b" stroke="#68777b" stroke-width="0"/><polygon points="380,285 392,292 380,299 368,292" fill="#68777b" stroke="#68777b" stroke-width="0"/><polygon points="392,292 404,299 392,306 380,299" fill="#68777b" stroke="#68777b" stroke-width="0"/><polygon points="404,299 416,306 404,313 392,306" fill="#68777b" stroke="#68777b" stroke-width="0"/><polygon points="416,306 428,313 416,320 404,313" fill="#68777b" stroke="#68777b" stroke-width="0"/><polygon points="428,313 440,320 428,327 416,320" fill="#68777b" stroke="#68777b" stroke-width="0"/><polygon points="440,320 452,327 440,334 428,327" fill="#68777b" stroke="#68777b" stroke-width="0"/><polygon points="452,327 464,334 452,341 440,334" fill="#68777b" stroke="#68777b" stroke-width="0"/><polygon points="464,334 476,341 464,348 452,341" fill="#68777b" stroke="#68777b" stroke-width="0"/><polygon points="524,369 536,376 524,383 512,376" fill="#68777b" stroke="#68777b" stroke-width="0"/><polygon points="536,376 548,383 536,390 524,383" fill="#68777b" stroke="#68777b" stroke-width="0"/><polygon points="548,383 560,390 548,397 536,390" fill="#68777b" stroke="#68777b" stroke-width="0"/><polygon points="560,390 572,397 560,404 548,397" fill="#68777b" stroke="#68777b" stroke-width="0"/><polygon points="572,397 584,404 572,411 560,404" fill="#68777b" stroke="#68777b" stroke-width="0"/><polygon points="584,404 596,411 584,418 572,411" fill="#68777b" stroke="#68777b" stroke-width="0"/><polygon points="368,292 380,299 368,306 356,299" fill="#68777b" stroke="#68777b" stroke-width="0"/><polygon points="380,299 392,306 380,313 368,306" fill="#68777b" stroke="#68777b" stroke-width="0"/><polygon points="392,306 404,313 392,320 380,313" fill="#68777b" stroke="#68777b" stroke-width="0"/><polygon points="404,313 416,320 404,327 392,320" fill="#68777b" stroke="#68777b" stroke-width="0"/><polygon points="416,320 428,327 416,334 404,327" fill="#68777b" stroke="#68777b" stroke-width="0"/><polygon points="428,327 440,334 428,341 416,334" fill="#68777b" stroke="#68777b" stroke-width="0"/><polygon points="440,334 452,341 440,348 428,341" fill="#68777b" stroke="#68777b" stroke-width="0"/><polygon points="452,341 464,348 452,355 440,348" fill="#68777b" stroke="#68777b" stroke-width="0"/><polygon points="464,348 476,355 464,362 452,355" fill="#68777b" stroke="#68777b" stroke-width="0"/><polygon points="476,355 488,362 476,369 464,362" fill="#68777b" stroke="#68777b" stroke-width="0"/><polygon points="488,362 500,369 488,376 476,369" fill="#68777b" stroke="#68777b" stroke-width="0"/><polygon points="500,369 512,376 500,383 488,376" fill="#68777b" stroke="#68777b" stroke-width="0"/><polygon points="512,376 524,383 512,390 500,383" fill="#68777b" stroke="#68777b" stroke-width="0"/><polygon points="524,383 536,390 524,397 512,390" fill="#68777b" stroke="#68777b" stroke-width="0"/><polygon points="536,390 548,397 536,404 524,397" fill="#68777b" stroke="#68777b" stroke-width="0"/><polygon points="548,397 560,404 548,411 536,404" fill="#68777b" stroke="#68777b" stroke-width="0"/><polygon points="560,404 572,411 560,418 548,411" fill="#68777b" stroke="#68777b" stroke-width="0"/><polygon points="572,411 584,418 572,425 560,418" fill="#68777b" stroke="#68777b" stroke-width="0"/><polygon points="356,299 368,306 356,313 344,306" fill="#68777b" stroke="#68777b" stroke-width="0"/><polygon points="368,306 380,313 368,320 356,313" fill="#68777b" stroke="#68777b" stroke-width="0"/><polygon points="380,313 392,320 380,327 368,320" fill="#68777b" stroke="#68777b" stroke-width="0"/><polygon points="392,320 404,327 392,334 380,327" fill="#68777b" stroke="#68777b" stroke-width="0"/><polygon points="404,327 416,334 404,341 392,334" fill="#68777b" stroke="#68777b" stroke-width="0"/><polygon points="416,334 428,341 416,348 404,341" fill="#68777b" stroke="#68777b" stroke-width="0"/><polygon points="428,341 440,348 428,355 416,348" fill="#68777b" stroke="#68777b" stroke-width="0"/><polygon points="440,348 452,355 440,362 428,355" fill="#68777b" stroke="#68777b" stroke-width="0"/><polygon points="452,355 464,362 452,369 440,362" fill="#68777b" stroke="#68777b" stroke-width="0"/><polygon points="464,362 476,369 464,376 452,369" fill="#68777b" stroke="#68777b" stroke-width="0"/><polygon points="476,369 488,376 476,383 464,376" fill="#68777b" stroke="#68777b" stroke-width="0"/><polygon points="488,376 500,383 488,390 476,383" fill="#68777b" stroke="#68777b" stroke-width="0"/><polygon points="500,383 512,390 500,397 488,390" fill="#68777b" stroke="#68777b" stroke-width="0"/><polygon points="512,390 524,397 512,404 500,397" fill="#68777b" stroke="#68777b" stroke-width="0"/><polygon points="524,397 536,404 524,411 512,404" fill="#68777b" stroke="#68777b" stroke-width="0"/><polygon points="536,404 548,411 536,418 524,411" fill="#68777b" stroke="#68777b" stroke-width="0"/><polygon points="548,411 560,418 548,425 536,418" fill="#68777b" stroke="#68777b" stroke-width="0"/><polygon points="560,418 572,425 560,432 548,425" fill="#68777b" stroke="#68777b" stroke-width="0"/><polygon points="344,306 356,313 344,320 332,313" fill="#68777b" stroke="#68777b" stroke-width="0"/><polygon points="356,313 368,320 356,327 344,320" fill="#68777b" stroke="#68777b" stroke-width="0"/><polygon points="368,320 380,327 368,334 356,327" fill="#68777b" stroke="#68777b" stroke-width="0"/><polygon points="332,313 344,320 332,327 320,320" fill="#68777b" stroke="#68777b" stroke-width="0"/><polygon points="344,320 356,327 344,334 332,327" fill="#68777b" stroke="#68777b" stroke-width="0"/><polygon points="356,327 368,334 356,341 344,334" fill="#68777b" stroke="#68777b" stroke-width="0"/><polygon points="320,320 332,327 320,334 308,327" fill="#68777b" stroke="#68777b" stroke-width="0"/><polygon points="332,327 344,334 332,341 320,334" fill="#68777b" stroke="#68777b" stroke-width="0"/><polygon points="344,334 356,341 344,348 332,341" fill="#68777b" stroke="#68777b" stroke-width="0"/><polygon points="308,327 320,334 308,341 296,334" fill="#68777b" stroke="#68777b" stroke-width="0"/><polygon points="320,334 332,341 320,348 308,341" fill="#68777b" stroke="#68777b" stroke-width="0"/><polygon points="332,341 344,348 332,355 320,348" fill="#68777b" stroke="#68777b" stroke-width="0"/><polygon points="296,334 308,341 296,348 284,341" fill="#68777b" stroke="#68777b" stroke-width="0"/><polygon points="308,341 320,348 308,355 296,348" fill="#68777b" stroke="#68777b" stroke-width="0"/><polygon points="320,348 332,355 320,362 308,355" fill="#68777b" stroke="#68777b" stroke-width="0"/><polygon points="284,341 296,348 284,355 272,348" fill="#68777b" stroke="#68777b" stroke-width="0"/><polygon points="296,348 308,355 296,362 284,355" fill="#68777b" stroke="#68777b" stroke-width="0"/><polygon points="308,355 320,362 308,369 296,362" fill="#68777b" stroke="#68777b" stroke-width="0"/><polygon points="272,348 284,355 272,362 260,355" fill="#68777b" stroke="#68777b" stroke-width="0"/><polygon points="284,355 296,362 284,369 272,362" fill="#68777b" stroke="#68777b" stroke-width="0"/><polygon points="296,362 308,369 296,376 284,369" fill="#68777b" stroke="#68777b" stroke-width="0"/><polygon points="260,355 272,362 260,369 248,362" fill="#68777b" stroke="#68777b" stroke-width="0"/><polygon points="272,362 284,369 272,376 260,369" fill="#68777b" stroke="#68777b" stroke-width="0"/><polygon points="284,369 296,376 284,383 272,376" fill="#68777b" stroke="#68777b" stroke-width="0"/><polygon points="248,362 260,369 248,376 236,369" fill="#68777b" stroke="#68777b" stroke-width="0"/><polygon points="260,369 272,376 260,383 248,376" fill="#68777b" stroke="#68777b" stroke-width="0"/><polygon points="272,376 284,383 272,390 260,383" fill="#68777b" stroke="#68777b" stroke-width="0"/><polygon points="236,369 248,376 236,383 224,376" fill="#68777b" stroke="#68777b" stroke-width="0"/><polygon points="248,376 260,383 248,390 236,383" fill="#68777b" stroke="#68777b" stroke-width="0"/><polygon points="260,383 272,390 260,397 248,390" fill="#68777b" stroke="#68777b" stroke-width="0"/><polygon points="224,376 236,383 224,390 212,383" fill="#68777b" stroke="#68777b" stroke-width="0"/><polygon points="236,383 248,390 236,397 224,390" fill="#68777b" stroke="#68777b" stroke-width="0"/><polygon points="248,390 260,397 248,404 236,397" fill="#68777b" stroke="#68777b" stroke-width="0"/><polygon points="212,383 224,390 212,397 200,390" fill="#68777b" stroke="#68777b" stroke-width="0"/><polygon points="224,390 236,397 224,404 212,397" fill="#68777b" stroke="#68777b" stroke-width="0"/><polygon points="236,397 248,404 236,411 224,404" fill="#68777b" stroke="#68777b" stroke-width="0"/><polygon points="200,390 212,397 200,404 188,397" fill="#68777b" stroke="#68777b" stroke-width="0"/><polygon points="212,397 224,404 212,411 200,404" fill="#68777b" stroke="#68777b" stroke-width="0"/><polygon points="224,404 236,411 224,418 212,411" fill="#68777b" stroke="#68777b" stroke-width="0"/><polygon points="224,390 236,397 224,404 212,397" fill="#94a3ab" stroke="#627576" stroke-width="1"/><polygon points="212,299 272,334 224,362 164,327" fill="#214752" stroke="#627576" stroke-width="1"/><polygon points="488,194 512,208 488,222 464,208" fill="#94a3ab" stroke="#627576" stroke-width="1"/><polygon points="464,208 488,222 464,236 440,222" fill="#94a3ab" stroke="#627576" stroke-width="1"/><polygon points="440,222 464,236 440,250 416,236" fill="#94a3ab" stroke="#627576" stroke-width="1"/><polygon points="416,236 440,250 416,264 392,250" fill="#94a3ab" stroke="#627576" stroke-width="1"/><polygon points="392,250 416,264 392,278 368,264" fill="#94a3ab" stroke="#627576" stroke-width="1"/><polygon points="368,264 392,278 368,292 344,278" fill="#94a3ab" stroke="#627576" stroke-width="1"/><polygon points="344,278 368,292 356,299 332,285" fill="#94a3ab" stroke="#627576" stroke-width="1"/><polygon points="332,285 356,299 344,306 320,292" fill="#94a3ab" stroke="#627576" stroke-width="1"/><polygon points="296,278 344,306 320,320 272,292" fill="#94a3ab" stroke="#627576" stroke-width="1"/><polygon points="572,243 704,320 596,383 464,306" fill="#94a3ab" stroke="#627576" stroke-width="1"/><polygon points="596,271 620,285 608,292 584,278" fill="#94a3ab" stroke="#627576" stroke-width="1"/><polygon points="584,278 608,292 596,299 572,285" fill="#94a3ab" stroke="#627576" stroke-width="1"/><polygon points="572,285 596,299 584,306 560,292" fill="#94a3ab" stroke="#627576" stroke-width="1"/><polygon points="560,292 584,306 572,313 548,299" fill="#94a3ab" stroke="#627576" stroke-width="1"/><polygon points="548,299 572,313 560,320 536,306" fill="#94a3ab" stroke="#627576" stroke-width="1"/><polygon points="536,306 560,320 548,327 524,313" fill="#94a3ab" stroke="#627576" stroke-width="1"/><polygon points="524,313 548,327 536,334 512,320" fill="#94a3ab" stroke="#627576" stroke-width="1"/><polygon points="632,292 656,306 644,313 620,299" fill="#94a3ab" stroke="#627576" stroke-width="1"/><polygon points="620,299 644,313 632,320 608,306" fill="#94a3ab" stroke="#627576" stroke-width="1"/><polygon points="608,306 632,320 620,327 596,313" fill="#94a3ab" stroke="#627576" stroke-width="1"/><polygon points="596,313 620,327 608,334 584,320" fill="#94a3ab" stroke="#627576" stroke-width="1"/><polygon points="584,320 608,334 596,341 572,327" fill="#94a3ab" stroke="#627576" stroke-width="1"/><polygon points="572,327 596,341 584,348 560,334" fill="#94a3ab" stroke="#627576" stroke-width="1"/><polygon points="560,334 584,348 572,355 548,341" fill="#94a3ab" stroke="#627576" stroke-width="1"/><polygon points="536,194 548,201 524,215 512,208" fill="#f8ca65" stroke="#c44825" stroke-width="3"/><circle cx="524.0" cy="208.0" r="6" fill="#c44825"/><path d="M585 135 L 524.0 208.0" stroke="#c44825" stroke-width="3"/><text x="485" y="120" class="label">Hold HERE</text><text x="353" y="194" class="label">Unit 101 →</text><text x="157" y="349" class="label">Office</text><text x="194" y="425" class="label">Gate</text><text x="25" y="580" class="title">Close-up (top view)</text><rect x="45" y="680" width="90" height="120" fill="#94a3ab"/><text x="48" y="745" class="label">101</text><rect x="135" y="680" width="170" height="120" fill="#68777b"/><text x="165" y="745" fill="white" class="label">Drive aisle</text><rect x="135" y="610" width="45" height="70" fill="#f8ca65" stroke="#c44825" stroke-width="3"/><circle cx="157" cy="663" r="6" fill="#c44825"/><path d="M157 680 L157 713" stroke="#c44825" stroke-width="3"/><text x="330" y="675" class="label">5×10 • default orientation</text><text x="330" y="710" class="label">Door faces down the drive aisle.</text><text x="330" y="750" class="label">Expected: valid • $620</text><text x="25" y="835" class="label">Anchor (10,3); footprint (10,2), 1×2 tiles. Do not flip.</text></svg>